<mxfile host="app.diagrams.net" agent="Mozilla/5.0 (Windows NT 10.0; Win64; x64) AppleWebKit/537.36 (KHTML, like Gecko) Chrome/137.0.0.0 Safari/537.36 OPR/121.0.0.0" version="28.2.3">
  <diagram name="Page-1" id="Zdfd7J9PFeHFOd8sdpHs">
    <mxGraphModel grid="1" page="1" gridSize="10" guides="1" tooltips="1" connect="1" arrows="1" fold="1" pageScale="1" pageWidth="850" pageHeight="1100" math="0" shadow="0">
      <root>
        <mxCell id="0" />
        <mxCell id="1" parent="0" />
        <mxCell id="78AAqwX26yps2CM4gPyj-49" value="Cedo do evento" style="text;html=1;align=center;verticalAlign=middle;resizable=0;points=[];autosize=1;strokeColor=none;fillColor=none;fontSize=22;fontStyle=1;fontColor=#00CCCC;" vertex="1" parent="1">
          <mxGeometry x="40" y="321.72" width="180" height="40" as="geometry" />
        </mxCell>
        <mxCell id="78AAqwX26yps2CM4gPyj-57" value="Tarde do evento" style="text;html=1;align=center;verticalAlign=middle;resizable=0;points=[];autosize=1;strokeColor=none;fillColor=none;fontSize=22;fontStyle=1;fontColor=#009900;" vertex="1" parent="1">
          <mxGeometry x="40" y="361.72" width="180" height="40" as="geometry" />
        </mxCell>
        <mxCell id="78AAqwX26yps2CM4gPyj-67" value="Folga do evento" style="text;html=1;align=center;verticalAlign=middle;resizable=0;points=[];autosize=1;strokeColor=none;fillColor=none;fontSize=22;fontStyle=1;fontColor=#CC6600;" vertex="1" parent="1">
          <mxGeometry x="40" y="401.72" width="180" height="40" as="geometry" />
        </mxCell>
        <mxCell id="78AAqwX26yps2CM4gPyj-75" value="Caminho crítico" style="text;html=1;align=center;verticalAlign=middle;resizable=0;points=[];autosize=1;strokeColor=none;fillColor=none;fontSize=22;fontStyle=1;fontColor=light-dark(#CC0000,#CC0000);" vertex="1" parent="1">
          <mxGeometry x="40" y="441.72" width="180" height="40" as="geometry" />
        </mxCell>
        <mxCell id="_0BnaSJ1iL0UTS0oKEKB-3" value="&lt;span style=&quot;background-color: rgb(255, 255, 255);&quot;&gt;&lt;font style=&quot;font-size: 20px;&quot;&gt;SQA&lt;/font&gt;&lt;/span&gt;" style="text;html=1;align=center;verticalAlign=middle;resizable=0;points=[];autosize=1;strokeColor=none;fillColor=none;rotation=0;fontColor=light-dark(#00E6A1,#006C33);" vertex="1" parent="1">
          <mxGeometry x="280" y="321.72" width="70" height="40" as="geometry" />
        </mxCell>
        <mxCell id="_0BnaSJ1iL0UTS0oKEKB-4" value="&lt;span style=&quot;background-color: rgb(255, 255, 255);&quot;&gt;&lt;font style=&quot;font-size: 20px;&quot;&gt;Analista/Projetista&lt;/font&gt;&lt;/span&gt;" style="text;html=1;align=center;verticalAlign=middle;resizable=0;points=[];autosize=1;strokeColor=none;fillColor=none;rotation=0;fontColor=light-dark(#B571AD,#FF6666);" vertex="1" parent="1">
          <mxGeometry x="280" y="361.72" width="180" height="40" as="geometry" />
        </mxCell>
        <mxCell id="_0BnaSJ1iL0UTS0oKEKB-5" value="&lt;span&gt;Gerência&lt;/span&gt;" style="text;html=1;align=center;verticalAlign=middle;resizable=0;points=[];autosize=1;strokeColor=none;fillColor=none;rotation=0;fontColor=light-dark(#FF6600,#EDEDED);fontSize=20;" vertex="1" parent="1">
          <mxGeometry x="280" y="401.71999999999997" width="100" height="40" as="geometry" />
        </mxCell>
        <mxCell id="_0BnaSJ1iL0UTS0oKEKB-6" value="&lt;font style=&quot;font-size: 20px;&quot;&gt;Codificação&lt;/font&gt;" style="text;html=1;align=center;verticalAlign=middle;resizable=0;points=[];autosize=1;strokeColor=none;fillColor=none;fontColor=#1F01B9;rotation=0;" vertex="1" parent="1">
          <mxGeometry x="280" y="441.72" width="130" height="40" as="geometry" />
        </mxCell>
        <mxCell id="_0BnaSJ1iL0UTS0oKEKB-12" value="A" style="ellipse;whiteSpace=wrap;html=1;aspect=fixed;" vertex="1" parent="1">
          <mxGeometry x="10" y="711.72" width="80" height="80" as="geometry" />
        </mxCell>
        <mxCell id="_0BnaSJ1iL0UTS0oKEKB-14" value="H" style="ellipse;whiteSpace=wrap;html=1;aspect=fixed;" vertex="1" parent="1">
          <mxGeometry x="1610" y="711.72" width="80" height="80" as="geometry" />
        </mxCell>
        <mxCell id="_0BnaSJ1iL0UTS0oKEKB-15" value="G" style="ellipse;whiteSpace=wrap;html=1;aspect=fixed;" vertex="1" parent="1">
          <mxGeometry x="1290" y="711.72" width="80" height="80" as="geometry" />
        </mxCell>
        <mxCell id="_0BnaSJ1iL0UTS0oKEKB-16" value="E" style="ellipse;whiteSpace=wrap;html=1;aspect=fixed;" vertex="1" parent="1">
          <mxGeometry x="810" y="471.72" width="80" height="80" as="geometry" />
        </mxCell>
        <mxCell id="_0BnaSJ1iL0UTS0oKEKB-17" value="F" style="ellipse;whiteSpace=wrap;html=1;aspect=fixed;" vertex="1" parent="1">
          <mxGeometry x="970" y="711.72" width="80" height="80" as="geometry" />
        </mxCell>
        <mxCell id="_0BnaSJ1iL0UTS0oKEKB-18" value="C" style="ellipse;whiteSpace=wrap;html=1;aspect=fixed;" vertex="1" parent="1">
          <mxGeometry x="650" y="711.72" width="80" height="80" as="geometry" />
        </mxCell>
        <mxCell id="_0BnaSJ1iL0UTS0oKEKB-19" value="D" style="ellipse;whiteSpace=wrap;html=1;aspect=fixed;" vertex="1" parent="1">
          <mxGeometry x="490" y="471.72" width="80" height="80" as="geometry" />
        </mxCell>
        <mxCell id="_0BnaSJ1iL0UTS0oKEKB-20" value="B" style="ellipse;whiteSpace=wrap;html=1;aspect=fixed;" vertex="1" parent="1">
          <mxGeometry x="330" y="711.72" width="80" height="80" as="geometry" />
        </mxCell>
        <mxCell id="_0BnaSJ1iL0UTS0oKEKB-33" value="" style="endArrow=classic;html=1;rounded=0;exitX=1;exitY=0.5;exitDx=0;exitDy=0;entryX=0;entryY=0.5;entryDx=0;entryDy=0;strokeColor=light-dark(#CC0000,#CC0000);" edge="1" parent="1" source="_0BnaSJ1iL0UTS0oKEKB-12" target="_0BnaSJ1iL0UTS0oKEKB-20">
          <mxGeometry width="50" height="50" relative="1" as="geometry">
            <mxPoint x="950" y="951.72" as="sourcePoint" />
            <mxPoint x="1000" y="901.72" as="targetPoint" />
          </mxGeometry>
        </mxCell>
        <mxCell id="_0BnaSJ1iL0UTS0oKEKB-34" value="" style="endArrow=classic;html=1;rounded=0;exitX=1;exitY=0;exitDx=0;exitDy=0;entryX=0;entryY=1;entryDx=0;entryDy=0;fontColor=none;noLabel=1;strokeColor=light-dark(#CC0000,#CC0000);" edge="1" parent="1" source="_0BnaSJ1iL0UTS0oKEKB-20" target="_0BnaSJ1iL0UTS0oKEKB-19">
          <mxGeometry width="50" height="50" relative="1" as="geometry">
            <mxPoint x="950" y="951.72" as="sourcePoint" />
            <mxPoint x="1000" y="901.72" as="targetPoint" />
          </mxGeometry>
        </mxCell>
        <mxCell id="_0BnaSJ1iL0UTS0oKEKB-35" value="" style="endArrow=classic;html=1;rounded=0;exitX=1;exitY=0.5;exitDx=0;exitDy=0;entryX=0;entryY=0.5;entryDx=0;entryDy=0;" edge="1" parent="1" source="_0BnaSJ1iL0UTS0oKEKB-20" target="_0BnaSJ1iL0UTS0oKEKB-18">
          <mxGeometry width="50" height="50" relative="1" as="geometry">
            <mxPoint x="950" y="951.72" as="sourcePoint" />
            <mxPoint x="1000" y="901.72" as="targetPoint" />
          </mxGeometry>
        </mxCell>
        <mxCell id="_0BnaSJ1iL0UTS0oKEKB-36" value="" style="endArrow=classic;html=1;rounded=0;exitX=1;exitY=0.5;exitDx=0;exitDy=0;entryX=0;entryY=0.5;entryDx=0;entryDy=0;strokeColor=light-dark(#CC0000,#CC0000);" edge="1" parent="1" source="_0BnaSJ1iL0UTS0oKEKB-19" target="_0BnaSJ1iL0UTS0oKEKB-16">
          <mxGeometry width="50" height="50" relative="1" as="geometry">
            <mxPoint x="950" y="951.72" as="sourcePoint" />
            <mxPoint x="1000" y="901.72" as="targetPoint" />
          </mxGeometry>
        </mxCell>
        <mxCell id="_0BnaSJ1iL0UTS0oKEKB-37" value="" style="endArrow=classic;html=1;rounded=0;exitX=1;exitY=1;exitDx=0;exitDy=0;entryX=0;entryY=0;entryDx=0;entryDy=0;strokeColor=light-dark(#CC0000,#CC0000);" edge="1" parent="1" source="_0BnaSJ1iL0UTS0oKEKB-16" target="_0BnaSJ1iL0UTS0oKEKB-17">
          <mxGeometry width="50" height="50" relative="1" as="geometry">
            <mxPoint x="950" y="951.72" as="sourcePoint" />
            <mxPoint x="1000" y="901.72" as="targetPoint" />
          </mxGeometry>
        </mxCell>
        <mxCell id="_0BnaSJ1iL0UTS0oKEKB-38" value="" style="endArrow=classic;html=1;rounded=0;exitX=1;exitY=0.5;exitDx=0;exitDy=0;entryX=0;entryY=0.5;entryDx=0;entryDy=0;" edge="1" parent="1" source="_0BnaSJ1iL0UTS0oKEKB-18" target="_0BnaSJ1iL0UTS0oKEKB-17">
          <mxGeometry width="50" height="50" relative="1" as="geometry">
            <mxPoint x="950" y="951.72" as="sourcePoint" />
            <mxPoint x="1000" y="901.72" as="targetPoint" />
          </mxGeometry>
        </mxCell>
        <mxCell id="_0BnaSJ1iL0UTS0oKEKB-39" value="" style="endArrow=classic;html=1;rounded=0;exitX=0;exitY=0;exitDx=0;exitDy=0;entryX=0.5;entryY=1;entryDx=0;entryDy=0;strokeColor=light-dark(#CC0000,#CC0000);" edge="1" parent="1" source="_0BnaSJ1iL0UTS0oKEKB-15" target="Ur4VdWU4CRq75m98HxGE-56">
          <mxGeometry width="50" height="50" relative="1" as="geometry">
            <mxPoint x="950" y="951.72" as="sourcePoint" />
            <mxPoint x="1461.7157287525383" y="540.0042712474617" as="targetPoint" />
          </mxGeometry>
        </mxCell>
        <mxCell id="_0BnaSJ1iL0UTS0oKEKB-40" value="" style="endArrow=classic;html=1;rounded=0;exitX=1;exitY=0.5;exitDx=0;exitDy=0;entryX=0;entryY=0.5;entryDx=0;entryDy=0;strokeColor=light-dark(#CC0000,#CC0000);" edge="1" parent="1" source="_0BnaSJ1iL0UTS0oKEKB-17" target="_0BnaSJ1iL0UTS0oKEKB-15">
          <mxGeometry width="50" height="50" relative="1" as="geometry">
            <mxPoint x="950" y="951.72" as="sourcePoint" />
            <mxPoint x="1000" y="901.72" as="targetPoint" />
          </mxGeometry>
        </mxCell>
        <mxCell id="_0BnaSJ1iL0UTS0oKEKB-41" value="" style="endArrow=classic;html=1;rounded=0;exitX=1;exitY=0.5;exitDx=0;exitDy=0;entryX=0;entryY=0.5;entryDx=0;entryDy=0;" edge="1" parent="1" source="_0BnaSJ1iL0UTS0oKEKB-15" target="_0BnaSJ1iL0UTS0oKEKB-14">
          <mxGeometry width="50" height="50" relative="1" as="geometry">
            <mxPoint x="950" y="951.72" as="sourcePoint" />
            <mxPoint x="1000" y="901.72" as="targetPoint" />
          </mxGeometry>
        </mxCell>
        <mxCell id="_0BnaSJ1iL0UTS0oKEKB-42" value="" style="endArrow=classic;html=1;rounded=0;exitX=0;exitY=0;exitDx=0;exitDy=0;entryX=1;entryY=0.5;entryDx=0;entryDy=0;" edge="1" parent="1" source="_0BnaSJ1iL0UTS0oKEKB-14" target="Ur4VdWU4CRq75m98HxGE-56">
          <mxGeometry width="50" height="50" relative="1" as="geometry">
            <mxPoint x="950" y="951.72" as="sourcePoint" />
            <mxPoint x="1781.7157287525747" y="540.0042712474262" as="targetPoint" />
          </mxGeometry>
        </mxCell>
        <mxCell id="_0BnaSJ1iL0UTS0oKEKB-44" value="" style="endArrow=classic;html=1;rounded=0;exitX=0.74;exitY=0.059;exitDx=0;exitDy=0;entryX=0;entryY=0.5;entryDx=0;entryDy=0;exitPerimeter=0;" edge="1" parent="1" source="_0BnaSJ1iL0UTS0oKEKB-19" target="Ur4VdWU4CRq75m98HxGE-56">
          <mxGeometry width="50" height="50" relative="1" as="geometry">
            <mxPoint x="660" y="491.72" as="sourcePoint" />
            <mxPoint x="661.7157287525561" y="300.00427124744397" as="targetPoint" />
          </mxGeometry>
        </mxCell>
        <mxCell id="_0BnaSJ1iL0UTS0oKEKB-45" value="Documento de Requisitos" style="text;html=1;align=center;verticalAlign=middle;resizable=0;points=[];autosize=1;strokeColor=none;fillColor=none;rotation=0;fontColor=light-dark(#B571AD,#FF6666);" vertex="1" parent="1">
          <mxGeometry x="130" y="721.72" width="160" height="30" as="geometry" />
        </mxCell>
        <mxCell id="_0BnaSJ1iL0UTS0oKEKB-46" value="&lt;span style=&quot;font-size: 11px; background-color: rgb(255, 255, 255);&quot;&gt;Casos de Uso Expandido&lt;/span&gt;" style="text;html=1;align=center;verticalAlign=middle;resizable=0;points=[];autosize=1;strokeColor=none;fillColor=none;fontColor=light-dark(#B571AD,#FF6666);rotation=-60;" vertex="1" parent="1">
          <mxGeometry x="360" y="611.72" width="150" height="30" as="geometry" />
        </mxCell>
        <mxCell id="_0BnaSJ1iL0UTS0oKEKB-47" value="&lt;span style=&quot;font-size: 11px; background-color: rgb(255, 255, 255);&quot;&gt;Relatório de Defeitos&lt;/span&gt;" style="text;html=1;align=center;verticalAlign=middle;resizable=0;points=[];autosize=1;strokeColor=none;fillColor=none;rotation=0;fontColor=light-dark(#00E6A1,#006C33);" vertex="1" parent="1">
          <mxGeometry x="470" y="721.72" width="130" height="30" as="geometry" />
        </mxCell>
        <mxCell id="_0BnaSJ1iL0UTS0oKEKB-48" value="&lt;span style=&quot;font-size: 11px; background-color: rgb(255, 255, 255);&quot;&gt;[SQA] Casos de Uso Expandido&lt;/span&gt;" style="text;html=1;align=center;verticalAlign=middle;resizable=0;points=[];autosize=1;strokeColor=none;fillColor=none;rotation=0;fontColor=light-dark(#00E6A1,#006C33);" vertex="1" parent="1">
          <mxGeometry x="600" y="481.72" width="180" height="30" as="geometry" />
        </mxCell>
        <mxCell id="_0BnaSJ1iL0UTS0oKEKB-49" value="&lt;span style=&quot;font-size: 11px;&quot;&gt;Estimativas e Métricas&lt;/span&gt;" style="text;html=1;align=center;verticalAlign=middle;resizable=0;points=[];autosize=1;strokeColor=none;fillColor=none;rotation=-20;fontColor=light-dark(#FF6600,#EDEDED);" vertex="1" parent="1">
          <mxGeometry x="765" y="341.72" width="130" height="30" as="geometry" />
        </mxCell>
        <mxCell id="_0BnaSJ1iL0UTS0oKEKB-50" value="&lt;span style=&quot;font-size: 11px; background-color: rgb(255, 255, 255);&quot;&gt;Correção Documento de Requisitos&lt;/span&gt;" style="text;html=1;align=center;verticalAlign=middle;resizable=0;points=[];autosize=1;strokeColor=none;fillColor=none;rotation=0;fontColor=light-dark(#B571AD,#FF6666);" vertex="1" parent="1">
          <mxGeometry x="745" y="721.72" width="200" height="30" as="geometry" />
        </mxCell>
        <mxCell id="_0BnaSJ1iL0UTS0oKEKB-51" value="Correção Casos de Uso Expandido" style="text;html=1;align=center;verticalAlign=middle;resizable=0;points=[];autosize=1;strokeColor=none;fillColor=none;rotation=60;fontColor=light-dark(#B571AD,#FF6666);" vertex="1" parent="1">
          <mxGeometry x="840" y="611.72" width="210" height="30" as="geometry" />
        </mxCell>
        <mxCell id="_0BnaSJ1iL0UTS0oKEKB-52" value="&lt;span style=&quot;font-size: 11px; background-color: rgb(255, 255, 255);&quot;&gt;Diagrama de Casos de Uso&lt;/span&gt;" style="text;html=1;align=center;verticalAlign=middle;resizable=0;points=[];autosize=1;strokeColor=none;fillColor=none;rotation=0;fontColor=light-dark(#B571AD,#FF6666);" vertex="1" parent="1">
          <mxGeometry x="1085" y="721.72" width="160" height="30" as="geometry" />
        </mxCell>
        <mxCell id="_0BnaSJ1iL0UTS0oKEKB-53" value="&lt;span style=&quot;font-size: 11px; background-color: rgb(255, 255, 255);&quot;&gt;Diagrama de Sequência&lt;/span&gt;" style="text;html=1;align=center;verticalAlign=middle;resizable=0;points=[];autosize=1;strokeColor=none;fillColor=none;rotation=70;fontColor=light-dark(#B571AD,#FF6666);" vertex="1" parent="1">
          <mxGeometry x="1190" y="521.72" width="140" height="30" as="geometry" />
        </mxCell>
        <mxCell id="_0BnaSJ1iL0UTS0oKEKB-54" value="Classes Iniciais" style="text;html=1;align=center;verticalAlign=middle;resizable=0;points=[];autosize=1;strokeColor=none;fillColor=none;fontColor=#1F01B9;rotation=50;" vertex="1" parent="1">
          <mxGeometry x="1355" y="451.72" width="110" height="30" as="geometry" />
        </mxCell>
        <mxCell id="_0BnaSJ1iL0UTS0oKEKB-55" value="Modelo Conceitual" style="text;html=1;align=center;verticalAlign=middle;resizable=0;points=[];autosize=1;strokeColor=none;fillColor=none;fontColor=light-dark(#B571AD,#FF6666);" vertex="1" parent="1">
          <mxGeometry x="1430" y="721.72" width="120" height="30" as="geometry" />
        </mxCell>
        <mxCell id="Ur4VdWU4CRq75m98HxGE-1" value="4" style="text;html=1;align=center;verticalAlign=middle;resizable=0;points=[];autosize=1;strokeColor=none;fillColor=none;" vertex="1" parent="1">
          <mxGeometry x="195" y="751.72" width="30" height="30" as="geometry" />
        </mxCell>
        <mxCell id="Ur4VdWU4CRq75m98HxGE-2" value="5" style="text;html=1;align=center;verticalAlign=middle;resizable=0;points=[];autosize=1;strokeColor=none;fillColor=none;" vertex="1" parent="1">
          <mxGeometry x="450" y="631.72" width="30" height="30" as="geometry" />
        </mxCell>
        <mxCell id="Ur4VdWU4CRq75m98HxGE-3" value="3" style="text;html=1;align=center;verticalAlign=middle;resizable=0;points=[];autosize=1;strokeColor=none;fillColor=none;" vertex="1" parent="1">
          <mxGeometry x="520" y="751.72" width="30" height="30" as="geometry" />
        </mxCell>
        <mxCell id="Ur4VdWU4CRq75m98HxGE-4" value="7" style="text;html=1;align=center;verticalAlign=middle;resizable=0;points=[];autosize=1;strokeColor=none;fillColor=none;" vertex="1" parent="1">
          <mxGeometry x="825" y="381.72" width="30" height="30" as="geometry" />
        </mxCell>
        <mxCell id="Ur4VdWU4CRq75m98HxGE-5" value="4" style="text;html=1;align=center;verticalAlign=middle;resizable=0;points=[];autosize=1;strokeColor=none;fillColor=none;" vertex="1" parent="1">
          <mxGeometry x="835" y="751.72" width="30" height="30" as="geometry" />
        </mxCell>
        <mxCell id="Ur4VdWU4CRq75m98HxGE-6" value="2" style="text;html=1;align=center;verticalAlign=middle;resizable=0;points=[];autosize=1;strokeColor=none;fillColor=none;" vertex="1" parent="1">
          <mxGeometry x="675" y="511.72" width="30" height="30" as="geometry" />
        </mxCell>
        <mxCell id="Ur4VdWU4CRq75m98HxGE-7" value="2" style="text;html=1;align=center;verticalAlign=middle;resizable=0;points=[];autosize=1;strokeColor=none;fillColor=none;" vertex="1" parent="1">
          <mxGeometry x="890" y="621.72" width="30" height="30" as="geometry" />
        </mxCell>
        <mxCell id="Ur4VdWU4CRq75m98HxGE-8" value="3" style="text;html=1;align=center;verticalAlign=middle;resizable=0;points=[];autosize=1;strokeColor=none;fillColor=none;" vertex="1" parent="1">
          <mxGeometry x="1155" y="751.72" width="30" height="30" as="geometry" />
        </mxCell>
        <mxCell id="Ur4VdWU4CRq75m98HxGE-9" value="5" style="text;html=1;align=center;verticalAlign=middle;resizable=0;points=[];autosize=1;strokeColor=none;fillColor=none;" vertex="1" parent="1">
          <mxGeometry x="1210" y="531.72" width="30" height="30" as="geometry" />
        </mxCell>
        <mxCell id="Ur4VdWU4CRq75m98HxGE-10" value="2" style="text;html=1;align=center;verticalAlign=middle;resizable=0;points=[];autosize=1;strokeColor=none;fillColor=none;" vertex="1" parent="1">
          <mxGeometry x="1475" y="751.72" width="30" height="30" as="geometry" />
        </mxCell>
        <mxCell id="Ur4VdWU4CRq75m98HxGE-11" value="2" style="text;html=1;align=center;verticalAlign=middle;resizable=0;points=[];autosize=1;strokeColor=none;fillColor=none;" vertex="1" parent="1">
          <mxGeometry x="1370" y="481.72" width="30" height="30" as="geometry" />
        </mxCell>
        <mxCell id="Ur4VdWU4CRq75m98HxGE-12" value="0" style="text;html=1;align=center;verticalAlign=middle;resizable=0;points=[];autosize=1;strokeColor=none;fillColor=none;fontSize=22;fontStyle=1;fontColor=#00CCCC;" vertex="1" parent="1">
          <mxGeometry x="30" y="671.72" width="40" height="40" as="geometry" />
        </mxCell>
        <mxCell id="Ur4VdWU4CRq75m98HxGE-13" value="0" style="text;html=1;align=center;verticalAlign=middle;resizable=0;points=[];autosize=1;strokeColor=none;fillColor=none;fontSize=22;fontStyle=1;fontColor=#009900;" vertex="1" parent="1">
          <mxGeometry x="30" y="631.72" width="40" height="40" as="geometry" />
        </mxCell>
        <mxCell id="Ur4VdWU4CRq75m98HxGE-14" value="_" style="text;html=1;align=center;verticalAlign=middle;resizable=0;points=[];autosize=1;strokeColor=none;fillColor=none;fontSize=22;fontStyle=1;fontColor=#000000;" vertex="1" parent="1">
          <mxGeometry x="30" y="641.72" width="40" height="40" as="geometry" />
        </mxCell>
        <mxCell id="Ur4VdWU4CRq75m98HxGE-15" value="0" style="text;html=1;align=center;verticalAlign=middle;resizable=0;points=[];autosize=1;strokeColor=none;fillColor=none;fontSize=22;fontStyle=1;fontColor=#CC6600;" vertex="1" parent="1">
          <mxGeometry y="651.72" width="40" height="40" as="geometry" />
        </mxCell>
        <mxCell id="Ur4VdWU4CRq75m98HxGE-16" value="4" style="text;html=1;align=center;verticalAlign=middle;resizable=0;points=[];autosize=1;strokeColor=none;fillColor=none;fontSize=22;fontStyle=1;fontColor=#00CCCC;" vertex="1" parent="1">
          <mxGeometry x="350" y="671.72" width="40" height="40" as="geometry" />
        </mxCell>
        <mxCell id="Ur4VdWU4CRq75m98HxGE-17" value="4" style="text;html=1;align=center;verticalAlign=middle;resizable=0;points=[];autosize=1;strokeColor=none;fillColor=none;fontSize=22;fontStyle=1;fontColor=#009900;" vertex="1" parent="1">
          <mxGeometry x="350" y="630" width="40" height="40" as="geometry" />
        </mxCell>
        <mxCell id="Ur4VdWU4CRq75m98HxGE-18" value="_" style="text;html=1;align=center;verticalAlign=middle;resizable=0;points=[];autosize=1;strokeColor=none;fillColor=none;fontSize=22;fontStyle=1;fontColor=#000000;" vertex="1" parent="1">
          <mxGeometry x="350" y="641.72" width="40" height="40" as="geometry" />
        </mxCell>
        <mxCell id="Ur4VdWU4CRq75m98HxGE-19" value="0" style="text;html=1;align=center;verticalAlign=middle;resizable=0;points=[];autosize=1;strokeColor=none;fillColor=none;fontSize=22;fontStyle=1;fontColor=#CC6600;" vertex="1" parent="1">
          <mxGeometry x="320" y="651.72" width="40" height="40" as="geometry" />
        </mxCell>
        <mxCell id="Ur4VdWU4CRq75m98HxGE-20" value="7" style="text;html=1;align=center;verticalAlign=middle;resizable=0;points=[];autosize=1;strokeColor=none;fillColor=none;fontSize=22;fontStyle=1;fontColor=#00CCCC;" vertex="1" parent="1">
          <mxGeometry x="670" y="671.72" width="40" height="40" as="geometry" />
        </mxCell>
        <mxCell id="Ur4VdWU4CRq75m98HxGE-21" value="9" style="text;html=1;align=center;verticalAlign=middle;resizable=0;points=[];autosize=1;strokeColor=none;fillColor=none;fontSize=22;fontStyle=1;fontColor=#009900;" vertex="1" parent="1">
          <mxGeometry x="670" y="630" width="40" height="40" as="geometry" />
        </mxCell>
        <mxCell id="Ur4VdWU4CRq75m98HxGE-22" value="_" style="text;html=1;align=center;verticalAlign=middle;resizable=0;points=[];autosize=1;strokeColor=none;fillColor=none;fontSize=22;fontStyle=1;fontColor=#000000;" vertex="1" parent="1">
          <mxGeometry x="670" y="641.72" width="40" height="40" as="geometry" />
        </mxCell>
        <mxCell id="Ur4VdWU4CRq75m98HxGE-23" value="2" style="text;html=1;align=center;verticalAlign=middle;resizable=0;points=[];autosize=1;strokeColor=none;fillColor=none;fontSize=22;fontStyle=1;fontColor=#CC6600;" vertex="1" parent="1">
          <mxGeometry x="640" y="651.72" width="40" height="40" as="geometry" />
        </mxCell>
        <mxCell id="Ur4VdWU4CRq75m98HxGE-24" value="9" style="text;html=1;align=center;verticalAlign=middle;resizable=0;points=[];autosize=1;strokeColor=none;fillColor=none;fontSize=22;fontStyle=1;fontColor=#00CCCC;" vertex="1" parent="1">
          <mxGeometry x="510" y="431.72" width="40" height="40" as="geometry" />
        </mxCell>
        <mxCell id="Ur4VdWU4CRq75m98HxGE-25" value="9" style="text;html=1;align=center;verticalAlign=middle;resizable=0;points=[];autosize=1;strokeColor=none;fillColor=none;fontSize=22;fontStyle=1;fontColor=#009900;" vertex="1" parent="1">
          <mxGeometry x="510" y="390" width="40" height="40" as="geometry" />
        </mxCell>
        <mxCell id="Ur4VdWU4CRq75m98HxGE-26" value="_" style="text;html=1;align=center;verticalAlign=middle;resizable=0;points=[];autosize=1;strokeColor=none;fillColor=none;fontSize=22;fontStyle=1;fontColor=#000000;" vertex="1" parent="1">
          <mxGeometry x="510" y="401.72" width="40" height="40" as="geometry" />
        </mxCell>
        <mxCell id="Ur4VdWU4CRq75m98HxGE-27" value="0" style="text;html=1;align=center;verticalAlign=middle;resizable=0;points=[];autosize=1;strokeColor=none;fillColor=none;fontSize=22;fontStyle=1;fontColor=#CC6600;" vertex="1" parent="1">
          <mxGeometry x="480" y="411.72" width="40" height="40" as="geometry" />
        </mxCell>
        <mxCell id="Ur4VdWU4CRq75m98HxGE-32" value="11" style="text;html=1;align=center;verticalAlign=middle;resizable=0;points=[];autosize=1;strokeColor=none;fillColor=none;fontSize=22;fontStyle=1;fontColor=#00CCCC;" vertex="1" parent="1">
          <mxGeometry x="905" y="471.72" width="50" height="40" as="geometry" />
        </mxCell>
        <mxCell id="Ur4VdWU4CRq75m98HxGE-33" value="11" style="text;html=1;align=center;verticalAlign=middle;resizable=0;points=[];autosize=1;strokeColor=none;fillColor=none;fontSize=22;fontStyle=1;fontColor=#009900;" vertex="1" parent="1">
          <mxGeometry x="905" y="430" width="50" height="40" as="geometry" />
        </mxCell>
        <mxCell id="Ur4VdWU4CRq75m98HxGE-34" value="_" style="text;html=1;align=center;verticalAlign=middle;resizable=0;points=[];autosize=1;strokeColor=none;fillColor=none;fontSize=22;fontStyle=1;fontColor=#000000;" vertex="1" parent="1">
          <mxGeometry x="910" y="441.72" width="40" height="40" as="geometry" />
        </mxCell>
        <mxCell id="Ur4VdWU4CRq75m98HxGE-35" value="0" style="text;html=1;align=center;verticalAlign=middle;resizable=0;points=[];autosize=1;strokeColor=none;fillColor=none;fontSize=22;fontStyle=1;fontColor=#CC6600;" vertex="1" parent="1">
          <mxGeometry x="880" y="451.72" width="40" height="40" as="geometry" />
        </mxCell>
        <mxCell id="Ur4VdWU4CRq75m98HxGE-36" value="13" style="text;html=1;align=center;verticalAlign=middle;resizable=0;points=[];autosize=1;strokeColor=none;fillColor=none;fontSize=22;fontStyle=1;fontColor=#00CCCC;" vertex="1" parent="1">
          <mxGeometry x="985" y="671.72" width="50" height="40" as="geometry" />
        </mxCell>
        <mxCell id="Ur4VdWU4CRq75m98HxGE-37" value="13" style="text;html=1;align=center;verticalAlign=middle;resizable=0;points=[];autosize=1;strokeColor=none;fillColor=none;fontSize=22;fontStyle=1;fontColor=#009900;" vertex="1" parent="1">
          <mxGeometry x="985" y="630" width="50" height="40" as="geometry" />
        </mxCell>
        <mxCell id="Ur4VdWU4CRq75m98HxGE-38" value="_" style="text;html=1;align=center;verticalAlign=middle;resizable=0;points=[];autosize=1;strokeColor=none;fillColor=none;fontSize=22;fontStyle=1;fontColor=#000000;" vertex="1" parent="1">
          <mxGeometry x="990" y="641.72" width="40" height="40" as="geometry" />
        </mxCell>
        <mxCell id="Ur4VdWU4CRq75m98HxGE-39" value="0" style="text;html=1;align=center;verticalAlign=middle;resizable=0;points=[];autosize=1;strokeColor=none;fillColor=none;fontSize=22;fontStyle=1;fontColor=#CC6600;" vertex="1" parent="1">
          <mxGeometry x="1020" y="651.72" width="40" height="40" as="geometry" />
        </mxCell>
        <mxCell id="Ur4VdWU4CRq75m98HxGE-40" value="16" style="text;html=1;align=center;verticalAlign=middle;resizable=0;points=[];autosize=1;strokeColor=none;fillColor=none;fontSize=22;fontStyle=1;fontColor=#00CCCC;" vertex="1" parent="1">
          <mxGeometry x="1305" y="671.72" width="50" height="40" as="geometry" />
        </mxCell>
        <mxCell id="Ur4VdWU4CRq75m98HxGE-41" value="16" style="text;html=1;align=center;verticalAlign=middle;resizable=0;points=[];autosize=1;strokeColor=none;fillColor=none;fontSize=22;fontStyle=1;fontColor=#009900;" vertex="1" parent="1">
          <mxGeometry x="1305" y="630" width="50" height="40" as="geometry" />
        </mxCell>
        <mxCell id="Ur4VdWU4CRq75m98HxGE-42" value="_" style="text;html=1;align=center;verticalAlign=middle;resizable=0;points=[];autosize=1;strokeColor=none;fillColor=none;fontSize=22;fontStyle=1;fontColor=#000000;" vertex="1" parent="1">
          <mxGeometry x="1310" y="641.72" width="40" height="40" as="geometry" />
        </mxCell>
        <mxCell id="Ur4VdWU4CRq75m98HxGE-43" value="0" style="text;html=1;align=center;verticalAlign=middle;resizable=0;points=[];autosize=1;strokeColor=none;fillColor=none;fontSize=22;fontStyle=1;fontColor=#CC6600;" vertex="1" parent="1">
          <mxGeometry x="1280" y="651.72" width="40" height="40" as="geometry" />
        </mxCell>
        <mxCell id="Ur4VdWU4CRq75m98HxGE-48" value="18" style="text;html=1;align=center;verticalAlign=middle;resizable=0;points=[];autosize=1;strokeColor=none;fillColor=none;fontSize=22;fontStyle=1;fontColor=#00CCCC;" vertex="1" parent="1">
          <mxGeometry x="1625" y="671.72" width="50" height="40" as="geometry" />
        </mxCell>
        <mxCell id="Ur4VdWU4CRq75m98HxGE-49" value="19" style="text;html=1;align=center;verticalAlign=middle;resizable=0;points=[];autosize=1;strokeColor=none;fillColor=none;fontSize=22;fontStyle=1;fontColor=#009900;" vertex="1" parent="1">
          <mxGeometry x="1625" y="630" width="50" height="40" as="geometry" />
        </mxCell>
        <mxCell id="Ur4VdWU4CRq75m98HxGE-50" value="_" style="text;html=1;align=center;verticalAlign=middle;resizable=0;points=[];autosize=1;strokeColor=none;fillColor=none;fontSize=22;fontStyle=1;fontColor=#000000;" vertex="1" parent="1">
          <mxGeometry x="1630" y="641.72" width="40" height="40" as="geometry" />
        </mxCell>
        <mxCell id="Ur4VdWU4CRq75m98HxGE-51" value="1" style="text;html=1;align=center;verticalAlign=middle;resizable=0;points=[];autosize=1;strokeColor=none;fillColor=none;fontSize=22;fontStyle=1;fontColor=#CC6600;" vertex="1" parent="1">
          <mxGeometry x="1600" y="651.72" width="40" height="40" as="geometry" />
        </mxCell>
        <mxCell id="Ur4VdWU4CRq75m98HxGE-56" value="i" style="ellipse;whiteSpace=wrap;html=1;" vertex="1" parent="1">
          <mxGeometry x="1130" y="231.72000000000003" width="80" height="80" as="geometry" />
        </mxCell>
        <mxCell id="Ur4VdWU4CRq75m98HxGE-60" value="Ponto de Controle 22/09" style="text;html=1;align=center;verticalAlign=middle;resizable=0;points=[];autosize=1;strokeColor=none;fillColor=none;fontSize=20;" vertex="1" parent="1">
          <mxGeometry x="1225" y="171.72000000000003" width="240" height="40" as="geometry" />
        </mxCell>
        <mxCell id="Ur4VdWU4CRq75m98HxGE-61" value="21" style="text;html=1;align=center;verticalAlign=middle;resizable=0;points=[];autosize=1;strokeColor=none;fillColor=none;fontSize=22;fontStyle=1;fontColor=#00CCCC;" vertex="1" parent="1">
          <mxGeometry x="1145" y="191.72000000000003" width="50" height="40" as="geometry" />
        </mxCell>
        <mxCell id="Ur4VdWU4CRq75m98HxGE-62" value="21" style="text;html=1;align=center;verticalAlign=middle;resizable=0;points=[];autosize=1;strokeColor=none;fillColor=none;fontSize=22;fontStyle=1;fontColor=#009900;" vertex="1" parent="1">
          <mxGeometry x="1145" y="150" width="50" height="40" as="geometry" />
        </mxCell>
        <mxCell id="Ur4VdWU4CRq75m98HxGE-63" value="_" style="text;html=1;align=center;verticalAlign=middle;resizable=0;points=[];autosize=1;strokeColor=none;fillColor=none;fontSize=22;fontStyle=1;fontColor=#000000;" vertex="1" parent="1">
          <mxGeometry x="1150" y="161.72000000000003" width="40" height="40" as="geometry" />
        </mxCell>
        <mxCell id="Ur4VdWU4CRq75m98HxGE-64" value="0" style="text;html=1;align=center;verticalAlign=middle;resizable=0;points=[];autosize=1;strokeColor=none;fillColor=none;fontSize=22;fontStyle=1;fontColor=#CC6600;" vertex="1" parent="1">
          <mxGeometry x="1120" y="171.72000000000003" width="40" height="40" as="geometry" />
        </mxCell>
        <mxCell id="Ur4VdWU4CRq75m98HxGE-68" value="td = 4 - 0 = 4&lt;div&gt;FT = 4 - 4 = 0&lt;/div&gt;&lt;div&gt;FL = (4 - 0) - 4 = 0&lt;/div&gt;&lt;div&gt;FD = (4 - 0) - 4 = 0&lt;/div&gt;&lt;div&gt;FI = (4 - 0) - 4 = 0&lt;/div&gt;" style="text;html=1;align=center;verticalAlign=middle;resizable=0;points=[];autosize=1;strokeColor=none;fillColor=none;fontSize=14;" vertex="1" parent="1">
          <mxGeometry x="140" y="771.72" width="140" height="100" as="geometry" />
        </mxCell>
        <mxCell id="Ur4VdWU4CRq75m98HxGE-69" value="td = 9 - 4 = 5&lt;div&gt;FT = 5 - 3 = 2&lt;/div&gt;&lt;div&gt;FL = (7 - 4) - 3 = 0&lt;/div&gt;&lt;div&gt;FD = (9 - 4) - 3 = 2&lt;/div&gt;&lt;div&gt;FI = (7 - 4) - 3 = 0&lt;/div&gt;" style="text;html=1;align=center;verticalAlign=middle;resizable=0;points=[];autosize=1;strokeColor=none;fillColor=none;fontSize=14;" vertex="1" parent="1">
          <mxGeometry x="460" y="771.72" width="140" height="100" as="geometry" />
        </mxCell>
        <mxCell id="Ur4VdWU4CRq75m98HxGE-70" value="td = 13 - 7 = 6&lt;div&gt;FT = 6 - 4 = 2&lt;/div&gt;&lt;div&gt;FL = (13 - 7) - 4 = 2&lt;/div&gt;&lt;div&gt;FD = (13 - 9) - 4 = 0&lt;/div&gt;&lt;div&gt;FI = (13 - 9) - 4 = 0&lt;/div&gt;" style="text;html=1;align=center;verticalAlign=middle;resizable=0;points=[];autosize=1;strokeColor=none;fillColor=none;fontSize=14;" vertex="1" parent="1">
          <mxGeometry x="775" y="771.72" width="150" height="100" as="geometry" />
        </mxCell>
        <mxCell id="Ur4VdWU4CRq75m98HxGE-71" value="td = 9 - 4 = 5&lt;div&gt;FT = 5 - 5 = 0&lt;/div&gt;&lt;div&gt;FL = (9 - 4) - 5 = 0&lt;/div&gt;&lt;div&gt;FD = (9 - 4) - 5 = 0&lt;/div&gt;&lt;div&gt;FI = (9 - 4) - 5 = 0&lt;/div&gt;" style="text;html=1;align=center;verticalAlign=middle;resizable=0;points=[];autosize=1;strokeColor=none;fillColor=none;fontSize=14;" vertex="1" parent="1">
          <mxGeometry x="290" y="530" width="140" height="100" as="geometry" />
        </mxCell>
        <mxCell id="Ur4VdWU4CRq75m98HxGE-72" value="td = 11 - 9 = 2&lt;div&gt;FT = 2 - 2 = 0&lt;/div&gt;&lt;div&gt;FL = (11 - 9) - 2 = 0&lt;/div&gt;&lt;div&gt;FD = (11 - 9) - 2&amp;nbsp;= 0&lt;/div&gt;&lt;div&gt;FI = (11 - 9) - 2&amp;nbsp;= 0&lt;/div&gt;" style="text;html=1;align=center;verticalAlign=middle;resizable=0;points=[];autosize=1;strokeColor=none;fillColor=none;fontSize=14;" vertex="1" parent="1">
          <mxGeometry x="615" y="531.72" width="150" height="100" as="geometry" />
        </mxCell>
        <mxCell id="Ur4VdWU4CRq75m98HxGE-73" value="td = 21 - 9 = 12&lt;div&gt;FT = 12 - 7 = 5&lt;/div&gt;&lt;div&gt;FL = (21 - 9) - 7 = 5&lt;/div&gt;&lt;div&gt;FD = (21 - 9) - 7&amp;nbsp;= 5&lt;/div&gt;&lt;div&gt;FI = (21 - 9) - 7&amp;nbsp;= 5&lt;/div&gt;" style="text;html=1;align=center;verticalAlign=middle;resizable=0;points=[];autosize=1;strokeColor=none;fillColor=none;fontSize=14;" vertex="1" parent="1">
          <mxGeometry x="675" y="250" width="150" height="100" as="geometry" />
        </mxCell>
        <mxCell id="Ur4VdWU4CRq75m98HxGE-74" value="td = 13 - 11 = 2&lt;div&gt;FT = 2 - 2 = 0&lt;/div&gt;&lt;div&gt;FL = (13 - 11) - 2 = 0&lt;/div&gt;&lt;div&gt;FD =&amp;nbsp;&lt;span style=&quot;background-color: transparent; color: light-dark(rgb(0, 0, 0), rgb(255, 255, 255));&quot;&gt;(13 - 11) - 2 = 0&lt;/span&gt;&lt;/div&gt;&lt;div&gt;FI =&amp;nbsp;&lt;span style=&quot;background-color: transparent; color: light-dark(rgb(0, 0, 0), rgb(255, 255, 255));&quot;&gt;(13 - 11) - 2 = 0&lt;/span&gt;&lt;/div&gt;" style="text;html=1;align=center;verticalAlign=middle;resizable=0;points=[];autosize=1;strokeColor=none;fillColor=none;fontSize=14;" vertex="1" parent="1">
          <mxGeometry x="960" y="521.72" width="150" height="100" as="geometry" />
        </mxCell>
        <mxCell id="Ur4VdWU4CRq75m98HxGE-76" value="td = 16 - 13 = 3&lt;div&gt;FT = 3 - 3 = 0&lt;/div&gt;&lt;div&gt;FL = (16 - 13) - 3 = 0&lt;/div&gt;&lt;div&gt;FD = (16 - 13) - 3&lt;span style=&quot;background-color: transparent; color: light-dark(rgb(0, 0, 0), rgb(255, 255, 255));&quot;&gt;&amp;nbsp;= 0&lt;/span&gt;&lt;/div&gt;&lt;div&gt;FI = (16 - 13) - 3&lt;span style=&quot;background-color: transparent; color: light-dark(rgb(0, 0, 0), rgb(255, 255, 255));&quot;&gt;&amp;nbsp;= 0&lt;/span&gt;&lt;/div&gt;" style="text;html=1;align=center;verticalAlign=middle;resizable=0;points=[];autosize=1;strokeColor=none;fillColor=none;fontSize=14;" vertex="1" parent="1">
          <mxGeometry x="1090" y="771.72" width="160" height="100" as="geometry" />
        </mxCell>
        <mxCell id="Ur4VdWU4CRq75m98HxGE-77" value="td = 19 - 16 = 3&lt;div&gt;FT = 3 - 2 = 1&lt;/div&gt;&lt;div&gt;FL = (18 - 16) - 2 = 0&lt;/div&gt;&lt;div&gt;FD = (19 - 16) - 2&lt;span style=&quot;background-color: transparent; color: light-dark(rgb(0, 0, 0), rgb(255, 255, 255));&quot;&gt;&amp;nbsp;= 1&lt;/span&gt;&lt;/div&gt;&lt;div&gt;FI = (18 - 16) - 2&lt;span style=&quot;background-color: transparent; color: light-dark(rgb(0, 0, 0), rgb(255, 255, 255));&quot;&gt;&amp;nbsp;= 0&lt;/span&gt;&lt;/div&gt;" style="text;html=1;align=center;verticalAlign=middle;resizable=0;points=[];autosize=1;strokeColor=none;fillColor=none;fontSize=14;" vertex="1" parent="1">
          <mxGeometry x="1410" y="771.72" width="160" height="100" as="geometry" />
        </mxCell>
        <mxCell id="Ur4VdWU4CRq75m98HxGE-78" value="td = 21 - 18 = 3&lt;div&gt;FT = 3 - 2 = 1&lt;/div&gt;&lt;div&gt;FL = (21 - 18) - 2 = 1&lt;/div&gt;&lt;div&gt;FD = (21 - 19) - 2&lt;span style=&quot;background-color: transparent; color: light-dark(rgb(0, 0, 0), rgb(255, 255, 255));&quot;&gt;&amp;nbsp;= 0&lt;/span&gt;&lt;/div&gt;&lt;div&gt;FI = (21 - 19) - 2&lt;span style=&quot;background-color: transparent; color: light-dark(rgb(0, 0, 0), rgb(255, 255, 255));&quot;&gt;&amp;nbsp;= 0&lt;/span&gt;&lt;/div&gt;" style="text;html=1;align=center;verticalAlign=middle;resizable=0;points=[];autosize=1;strokeColor=none;fillColor=none;fontSize=14;" vertex="1" parent="1">
          <mxGeometry x="1430" y="381.72" width="160" height="100" as="geometry" />
        </mxCell>
        <mxCell id="Ur4VdWU4CRq75m98HxGE-79" value="td = 21 - 16 = 5&lt;div&gt;FT = 5 - 5 = 0&lt;/div&gt;&lt;div&gt;FL = (21 - 16) - 5 = 0&lt;/div&gt;&lt;div&gt;FD = (21 - 16) - 5&lt;span style=&quot;background-color: transparent; color: light-dark(rgb(0, 0, 0), rgb(255, 255, 255));&quot;&gt;&amp;nbsp;= 0&lt;/span&gt;&lt;/div&gt;&lt;div&gt;FI = (21 - 16) - 5&lt;span style=&quot;background-color: transparent; color: light-dark(rgb(0, 0, 0), rgb(255, 255, 255));&quot;&gt;&amp;nbsp;= 0&lt;/span&gt;&lt;/div&gt;" style="text;html=1;align=center;verticalAlign=middle;resizable=0;points=[];autosize=1;strokeColor=none;fillColor=none;fontSize=14;" vertex="1" parent="1">
          <mxGeometry x="1050" y="411.72" width="160" height="100" as="geometry" />
        </mxCell>
        <mxCell id="Ur4VdWU4CRq75m98HxGE-80" value="REDE DE TAREFAS - PROJETO ACC" style="text;html=1;align=center;verticalAlign=middle;resizable=0;points=[];autosize=1;strokeColor=none;fillColor=none;fontSize=32;fontStyle=1" vertex="1" parent="1">
          <mxGeometry x="110" y="105" width="570" height="50" as="geometry" />
        </mxCell>
        <mxCell id="Ur4VdWU4CRq75m98HxGE-81" value="TIMES" style="text;html=1;align=center;verticalAlign=middle;resizable=0;points=[];autosize=1;strokeColor=none;fillColor=none;fontSize=24;" vertex="1" parent="1">
          <mxGeometry x="310" y="280" width="100" height="40" as="geometry" />
        </mxCell>
      </root>
    </mxGraphModel>
  </diagram>
</mxfile>
